<svg height="100%" viewBox="0 0 29 32" fill="none" xmlns="http://www.w3.org/2000/svg">
<path d="M0.928761 32V16.8578H8.39976V22.7615C8.39976 27.9182 8.431 28.6967 8.64967 28.9131C8.87015 29.1319 9.87281 29.1611 17.2801 29.1611C23.5874 29.1611 25.7087 29.114 25.8523 28.9716C26.1274 28.6985 26.1274 12.1149 25.8523 11.8418C25.7159 11.7071 24.7151 11.6529 22.3553 11.6529H19.0493V9.28673H28.9041V32H0.928761ZM9.67095 27.8991V19.8952L10.9824 19.779C11.7039 19.7146 12.6513 19.6794 13.0887 19.6997C13.526 19.7199 14.4019 19.733 15.0357 19.7277C16.43 19.717 17.8641 19.7164 19.4068 19.7259C20.0406 19.7301 20.9525 19.717 21.4337 19.6967C21.9143 19.6764 22.8978 19.7128 23.6193 19.7778L24.9301 19.8952V27.8991H9.67095ZM0.928761 9.28376L15.473 9.36603L15.5662 11.6529H12.2326C8.47245 11.6529 8.39976 11.6743 8.39976 12.7682V13.3876H0.928761V9.28376ZM0.916748 8.18267L1.00866 5.4225L15.473 5.26452L15.5644 2.36366L13.8834 2.26768L13.8366 1.29179C13.7951 0.435717 13.8306 0.293239 14.1219 0.13824C14.3442 0.0207987 15.4586 -0.0221267 17.473 0.0106615C20.866 0.0655072 20.7909 0.0374893 20.7951 1.25065C20.7981 2.14249 20.6005 2.34697 19.733 2.34697H19.0493V5.33904L28.8248 5.4225L28.9167 8.18267H0.916748Z" fill="currentColor"/>
</svg>
